<?xml version="1.0" encoding="utf-8"?>
<svg version="1.1" id="Layer_1" xmlns="http://www.w3.org/2000/svg" xmlns:xlink="http://www.w3.org/1999/xlink" x="0px" y="0px"
	 viewBox="0 0 1240.218 1669.286" enable-background="new 0 0 1240.218 1669.286" xml:space="preserve">
<path style="fill:#fff" d="M1168.429,931.018c-26.613-249.694-247.536-446.887-364.8-695.55c-65.631-139.232-67.618-142.622-96.76-158.85
	c-18.822-10.474-94.324-42.56-133.33-41.96c-22.262,0.334-165.823,18.988-170.62,33.18c-1.26,3.71-10.51,6.66-20.55,6.64
	c-29.28-0.04-81.92,21.76-101.26,41.95c-14.11,14.73-18.45,27.23-25.69,82.21c-1.64,9.839-10.553,81.053-7.5,116.67
	c-3.643,49.126,43.273,110.566,143.22,124.17c17,8.51,31.84,8.02,45.81,3.85c28.778,1.535,37.34-19.493,71.5-25.69
	c11.56,8.9,26.93,5.36,40.04-1.71c39.258-3.658,44.085-27.095,52.23-50.31c26.09,53.74,32.43,117.14,43.89,175.12
	c5.808,86.943-6.129,133.584-12.85,328.62c-1.35,1.02-2.91,2.63-4.5,5.35c-47.54-56.131-66.249-75.85-150.71-85.21
	c-89.193-9.875-125.674,33.83-217.51,121.6c-66.904-34.372-188.013-69.36-197.6-69.36c-12.753,0-7.86-26.174-23.79,427.2
	c0,0-0.072-4.384,0.86,362.11c0.35-0.49,0.72-1.01,1.07-1.5c1.83,17.33,33.63-9.86,67.86-76.43l32.97-64.01
	c47.497,0,163.37,26.726,223.93,36.18c335.437,17.912,554.879-183.616,666.65-236.33c70.36-33.19,143.98-105.38,160.77-157.35
	C1222.472,1036.511,1179.675,1036.865,1168.429,931.018z"/>
</svg>
